<svg width="40" height="40" viewBox="0 0 40 40" fill="none" xmlns="http://www.w3.org/2000/svg">
<g clip-path="url(#clip0_798_39288)">
<rect width="40" height="40" rx="6" fill="#00613D"/>
<path fill-rule="evenodd" clip-rule="evenodd" d="M26.147 12.557C26.1659 12.6549 26.1901 12.7557 26.2279 12.8608C26.1922 12.7612 26.1659 12.6588 26.147 12.557ZM14.2138 32C13.5164 32 12.9235 31.7966 12.4511 31.3965C12.4257 31.374 12.4007 31.3494 12.3783 31.3229C12.2441 31.1635 11.8358 30.6803 12.0722 29.7716C12.0738 29.7648 12.0763 29.7576 12.079 29.7506L12.2526 29.1686C12.5058 28.2956 12.5707 28.0954 12.5974 28.026C12.6303 27.9225 12.7588 27.4411 12.8636 27.0391C12.8657 27.0292 12.8682 27.0206 12.8715 27.011L14.1652 22.8627C14.0946 22.8034 13.96 22.6722 13.8656 22.4689C13.7386 22.1848 13.7518 21.9028 13.8087 21.5642C13.809 21.5556 13.8112 21.547 13.8131 21.5388C13.8656 21.2857 14.1216 20.6432 14.2288 20.3799C14.236 20.3633 14.2432 20.3471 14.2514 20.3316C14.3702 20.0985 14.5363 19.8378 14.8039 19.7408C14.8744 19.7052 14.9488 19.6747 15.0263 19.6427C15.086 19.6188 15.1526 19.5915 15.2241 19.5585L15.2783 19.5341C15.2893 19.5294 15.3025 19.5233 15.3148 19.5177C15.4028 19.2113 15.6252 18.51 15.6346 18.4782L15.983 17.3342L16.3658 16.1146L16.5124 15.6804C16.3773 15.7616 16.2745 15.824 16.2638 15.83L15.3533 16.3511C15.1124 16.5331 14.7388 16.5217 14.5014 16.3055C14.3729 16.1884 14.2994 16.0233 14.2988 15.8507C14.2974 15.5158 14.3004 12.5398 14.8372 11.1868C14.909 11.0017 15.2975 10.2134 16.8595 9.65462C17.0898 9.55001 18.5954 8.88191 19.9791 8.67275C20.1779 8.63197 21.912 8.279 23.2456 8.11648C23.5544 8.05783 24.1179 8 24.709 8C25.2033 8 25.635 8.03973 25.9912 8.11866L26.0414 8.12542C26.397 8.17153 27.3141 8.29094 27.465 9.05352C27.5062 9.16834 27.5349 9.31239 27.5543 9.49376C27.5555 9.50637 27.5558 9.51937 27.5566 9.53236C27.5646 9.75436 27.5577 10.7402 27.5572 10.8522L27.5232 12.2494C27.5232 12.2574 27.5232 12.2651 27.5222 12.2732L27.4895 12.7924C27.5238 13.3809 26.7439 13.8178 26.3838 14.0179C26.2226 14.1144 25.9397 14.3061 25.8506 14.3837C25.823 14.4071 25.7994 14.4286 25.7754 14.4493C25.6306 14.5804 25.431 14.7593 25.1419 14.7842C25.0074 14.796 24.8724 14.7635 24.757 14.6932C24.2345 14.4029 24.3388 13.8588 24.4143 13.4616C24.4273 13.3968 24.4492 13.3345 24.4817 13.2767C24.4961 13.2484 24.5111 13.2221 24.5257 13.1969C24.3947 13.2111 24.3143 13.2206 24.2689 13.2268C24.2314 13.2377 24.193 13.2456 24.1545 13.2496C24.1314 13.2526 21.8113 13.5156 20.6875 13.9895C20.6625 14.0006 20.6371 14.0091 20.6105 14.0167C20.5866 14.0232 20.563 14.0294 20.5388 14.035C20.5371 14.0396 20.5368 14.0447 20.534 14.0504C20.4072 14.452 19.9266 15.9291 19.9266 15.9291L19.271 18.099C19.5703 18.0152 19.9466 17.9088 20.2211 17.8315C20.2324 17.8281 20.2447 17.8246 20.2568 17.8221L22.5398 17.3184C22.5488 17.316 22.5574 17.3145 22.5669 17.3125C22.6363 17.3006 23.2498 17.1953 23.6312 17.1953C23.7577 17.1953 23.858 17.2061 23.9471 17.2289L24.0263 17.2484C24.3098 17.3159 24.4482 17.4137 24.5986 17.6498L24.6153 17.6753C24.6643 17.7525 24.696 17.8399 24.709 17.9307C24.7336 18.1301 24.7457 18.2979 24.6615 18.6133C24.5757 18.9494 24.4344 19.1121 24.297 19.2698L24.2452 19.3296C24.0643 19.5459 23.8473 19.6419 23.6878 19.7124C23.6158 19.7444 23.5523 19.7723 23.4896 19.8117C23.442 19.8406 23.3922 19.8629 23.3395 19.8792C23.0815 19.9571 22.4986 20.1187 21.4901 20.3282C21.1305 20.4325 20.3784 20.6393 20.2191 20.6827L18.6393 21.276L18.1117 21.511C18.0127 21.7749 17.7494 22.5314 17.5702 23.0535L16.9347 24.8556L16.4176 26.2679C16.6708 26.4468 16.8978 26.6664 17.1069 27.226C17.1146 27.2436 17.1203 27.2614 17.1248 27.2801C17.1487 27.3671 17.3525 28.1503 17.1932 28.8491C17.1753 28.9369 16.9854 29.8276 16.6804 30.3271C16.5649 30.5148 16.1632 31.1443 15.81 31.3978L15.7715 31.4262C15.578 31.5729 15.174 31.8778 14.494 31.988C14.4662 31.9927 14.4377 31.9952 14.4101 31.9961L14.3832 31.9963C14.3366 31.9984 14.2795 32 14.2138 32Z" fill="white"/>
</g>
<defs>
<clipPath id="clip0_798_39288">
<rect width="40" height="40" fill="white"/>
</clipPath>
</defs>
</svg>
