<svg width="40" height="40" viewBox="0 0 40 40" fill="none" xmlns="http://www.w3.org/2000/svg">
<g clip-path="url(#clip0_3166_9667)">
<rect width="40" height="40" rx="6" fill="#008FE5"/>
<mask id="mask0_3166_9667" style="mask-type:alpha" maskUnits="userSpaceOnUse" x="0" y="0" width="40" height="40">
<rect width="40" height="40" rx="6" fill="white"/>
</mask>
<g mask="url(#mask0_3166_9667)">
<rect x="3.55127" y="8.18364" width="40" height="40" rx="4" transform="rotate(-11 3.55127 8.18364)" fill="white"/>
<path fill-rule="evenodd" clip-rule="evenodd" d="M29.6139 18.7725C29.4233 18.9762 29.1806 19.078 28.8859 19.078C28.5913 19.078 28.3486 18.9762 28.1579 18.7725C27.9673 18.5688 27.8719 18.3197 27.8719 18.025V10.043C27.8719 9.74832 27.9673 9.49916 28.1579 9.29549C28.3486 9.09182 28.5913 8.98999 28.8859 8.98999C29.1806 8.98999 29.4233 9.09182 29.6139 9.29549C29.8046 9.49916 29.8999 9.74832 29.8999 10.043V18.025C29.8999 18.3197 29.8046 18.5688 29.6139 18.7725ZM20.1239 18.025C20.1239 18.675 19.7513 19 19.0059 19H14.3389C13.3509 19 12.8569 18.6143 12.8569 17.843C12.8569 17.5743 12.9869 17.2667 13.2469 16.92L17.2249 11.616H14.1179C13.7626 11.616 13.4874 11.5293 13.2924 11.356C13.0974 11.1827 12.9999 10.9573 12.9999 10.68C12.9999 10.4027 13.0974 10.1773 13.2924 10.004C13.4874 9.83066 13.7626 9.74399 14.1179 9.74399H18.6419C19.4999 9.74399 19.9289 10.095 19.9289 10.797C19.9289 11.1003 19.5996 11.6897 18.9409 12.565L15.5739 17.05H19.0059C19.7513 17.05 20.1239 17.375 20.1239 18.025ZM25.0509 18.428C24.6263 18.948 24.0456 19.208 23.3089 19.208C22.4249 19.208 21.6818 18.8527 21.0794 18.142C20.4771 17.4313 20.1759 16.5647 20.1759 15.542C20.1759 14.5193 20.4771 13.6527 21.0794 12.942C21.6818 12.2313 22.4249 11.876 23.3089 11.876C24.0456 11.876 24.6263 12.136 25.0509 12.656C25.2503 12.2227 25.5666 12.006 25.9999 12.006C26.2946 12.006 26.5373 12.1078 26.7279 12.3115C26.9186 12.5152 27.0139 12.7643 27.0139 13.059V18.025C27.0139 18.3197 26.9186 18.5688 26.7279 18.7725C26.5373 18.9762 26.2946 19.078 25.9999 19.078C25.5666 19.078 25.2503 18.8613 25.0509 18.428ZM23.5949 17.258C23.1616 17.258 22.8214 17.0933 22.5744 16.764C22.3274 16.4347 22.2039 16.0273 22.2039 15.542C22.2039 15.0567 22.3274 14.6493 22.5744 14.32C22.8214 13.9907 23.1616 13.826 23.5949 13.826C24.0283 13.826 24.3684 13.9907 24.6154 14.32C24.8624 14.6493 24.9859 15.0567 24.9859 15.542C24.9859 16.0273 24.8624 16.4347 24.6154 16.764C24.3684 17.0933 24.0283 17.258 23.5949 17.258ZM33.9429 19.208C34.9483 19.208 35.7759 18.8527 36.4259 18.142C37.0499 17.4487 37.3619 16.582 37.3619 15.542C37.3619 14.502 37.0499 13.6353 36.4259 12.942C35.7759 12.2313 34.9483 11.876 33.9429 11.876C32.9376 11.876 32.1164 12.227 31.4794 12.929C30.8424 13.631 30.5239 14.502 30.5239 15.542C30.5239 16.582 30.8424 17.453 31.4794 18.155C32.1164 18.857 32.9376 19.208 33.9429 19.208ZM32.9224 16.764C33.1694 17.0933 33.5096 17.258 33.9429 17.258C34.3763 17.258 34.7164 17.0933 34.9634 16.764C35.2104 16.4347 35.3339 16.0273 35.3339 15.542C35.3339 15.0567 35.2104 14.6493 34.9634 14.32C34.7164 13.9907 34.3763 13.826 33.9429 13.826C33.5096 13.826 33.1694 13.9907 32.9224 14.32C32.6754 14.6493 32.5519 15.0567 32.5519 15.542C32.5519 16.0273 32.6754 16.4347 32.9224 16.764Z" fill="#008FE5"/>
<rect x="13" y="21" width="20" height="13" rx="1" fill="#04BE04"/>
<path fill-rule="evenodd" clip-rule="evenodd" d="M14.44 31.372C15.088 31.372 15.412 31.028 15.412 30.34V28.552H16.888C17.792 28.552 18.496 28.284 19 27.748C19.504 27.212 19.756 26.516 19.756 25.66C19.756 24.74 19.456 24.016 18.856 23.488C18.312 23 17.636 22.756 16.828 22.756H14.44C14.176 22.756 13.948 22.844 13.756 23.02C13.564 23.196 13.468 23.432 13.468 23.728V30.34C13.468 31.028 13.792 31.372 14.44 31.372ZM16.456 26.824H15.412V24.484H16.456C16.848 24.484 17.16 24.586 17.392 24.79C17.624 24.994 17.74 25.284 17.74 25.66C17.74 25.98 17.628 26.248 17.404 26.464C17.164 26.704 16.848 26.824 16.456 26.824ZM24.568 30.772C24.176 31.252 23.64 31.492 22.96 31.492C22.144 31.492 21.458 31.164 20.902 30.508C20.346 29.852 20.068 29.052 20.068 28.108C20.068 27.164 20.346 26.364 20.902 25.708C21.458 25.052 22.144 24.724 22.96 24.724C23.64 24.724 24.176 24.964 24.568 25.444C24.752 25.044 25.044 24.844 25.444 24.844C25.716 24.844 25.94 24.938 26.116 25.126C26.292 25.314 26.38 25.544 26.38 25.816V30.4C26.38 30.672 26.292 30.902 26.116 31.09C25.94 31.278 25.716 31.372 25.444 31.372C25.044 31.372 24.752 31.172 24.568 30.772ZM23.224 29.692C22.824 29.692 22.51 29.54 22.282 29.236C22.054 28.932 21.94 28.556 21.94 28.108C21.94 27.66 22.054 27.284 22.282 26.98C22.51 26.676 22.824 26.524 23.224 26.524C23.624 26.524 23.938 26.676 24.166 26.98C24.394 27.284 24.508 27.66 24.508 28.108C24.508 28.556 24.394 28.932 24.166 29.236C23.938 29.54 23.624 29.692 23.224 29.692ZM29.428 33.7C29.268 33.876 29.044 33.964 28.756 33.964C28.452 33.964 28.216 33.864 28.048 33.664C27.904 33.496 27.832 33.316 27.832 33.124C27.832 32.908 27.936 32.564 28.144 32.092L28.768 30.688L27.172 26.884C26.908 26.252 26.776 25.864 26.776 25.72C26.776 25.456 26.866 25.244 27.046 25.084C27.226 24.924 27.44 24.844 27.688 24.844C28.144 24.844 28.464 25.08 28.648 25.552L29.752 28.408L30.796 25.864C31.076 25.184 31.416 24.844 31.816 24.844C32.104 24.844 32.336 24.93 32.512 25.102C32.688 25.274 32.776 25.504 32.776 25.792C32.776 25.984 32.7 26.256 32.548 26.608L29.776 33.076C29.64 33.388 29.524 33.596 29.428 33.7Z" fill="white"/>
</g>
</g>
<defs>
<clipPath id="clip0_3166_9667">
<rect width="40" height="40" fill="white"/>
</clipPath>
</defs>
</svg>
